<svg id="visual" viewBox="0 0 900 600" width="900" height="600" xmlns="http://www.w3.org/2000/svg" xmlns:xlink="http://www.w3.org/1999/xlink" version="1.1"><rect x="0" y="0" width="900" height="600" fill="#f3f6fb"></rect><path d="M0 172L129 172L129 164L257 164L257 106L386 106L386 132L514 132L514 150L643 150L643 123L771 123L771 167L900 167L900 159L900 0L900 0L771 0L771 0L643 0L643 0L514 0L514 0L386 0L386 0L257 0L257 0L129 0L129 0L0 0Z" fill="#cdcce3"></path><path d="M0 131L129 131L129 124L257 124L257 123L386 123L386 157L514 157L514 132L643 132L643 143L771 143L771 116L900 116L900 161L900 0L900 0L771 0L771 0L643 0L643 0L514 0L514 0L386 0L386 0L257 0L257 0L129 0L129 0L0 0Z" fill="#c4c3e4"></path><path d="M0 117L129 117L129 131L257 131L257 135L386 135L386 138L514 138L514 131L643 131L643 98L771 98L771 106L900 106L900 96L900 0L900 0L771 0L771 0L643 0L643 0L514 0L514 0L386 0L386 0L257 0L257 0L129 0L129 0L0 0Z" fill="#bbbae4"></path><path d="M0 107L129 107L129 125L257 125L257 123L386 123L386 124L514 124L514 97L643 97L643 106L771 106L771 101L900 101L900 79L900 0L900 0L771 0L771 0L643 0L643 0L514 0L514 0L386 0L386 0L257 0L257 0L129 0L129 0L0 0Z" fill="#b1b0e5"></path><path d="M0 89L129 89L129 68L257 68L257 94L386 94L386 120L514 120L514 92L643 92L643 89L771 89L771 123L900 123L900 94L900 0L900 0L771 0L771 0L643 0L643 0L514 0L514 0L386 0L386 0L257 0L257 0L129 0L129 0L0 0Z" fill="#a7a7e5"></path><path d="M0 81L129 81L129 109L257 109L257 102L386 102L386 98L514 98L514 75L643 75L643 87L771 87L771 86L900 86L900 100L900 0L900 0L771 0L771 0L643 0L643 0L514 0L514 0L386 0L386 0L257 0L257 0L129 0L129 0L0 0Z" fill="#9d9ee6"></path><path d="M0 96L129 96L129 85L257 85L257 55L386 55L386 52L514 52L514 69L643 69L643 74L771 74L771 74L900 74L900 84L900 0L900 0L771 0L771 0L643 0L643 0L514 0L514 0L386 0L386 0L257 0L257 0L129 0L129 0L0 0Z" fill="#9396e6"></path><path d="M0 46L129 46L129 41L257 41L257 75L386 75L386 68L514 68L514 81L643 81L643 59L771 59L771 58L900 58L900 50L900 0L900 0L771 0L771 0L643 0L643 0L514 0L514 0L386 0L386 0L257 0L257 0L129 0L129 0L0 0Z" fill="#878de6"></path><path d="M0 42L129 42L129 57L257 57L257 35L386 35L386 30L514 30L514 48L643 48L643 28L771 28L771 51L900 51L900 32L900 0L900 0L771 0L771 0L643 0L643 0L514 0L514 0L386 0L386 0L257 0L257 0L129 0L129 0L0 0Z" fill="#7c84e6"></path><path d="M0 32L129 32L129 53L257 53L257 47L386 47L386 47L514 47L514 20L643 20L643 36L771 36L771 53L900 53L900 24L900 0L900 0L771 0L771 0L643 0L643 0L514 0L514 0L386 0L386 0L257 0L257 0L129 0L129 0L0 0Z" fill="#6f7ce6"></path><path d="M0 37L129 37L129 11L257 11L257 27L386 27L386 10L514 10L514 30L643 30L643 22L771 22L771 30L900 30L900 35L900 0L900 0L771 0L771 0L643 0L643 0L514 0L514 0L386 0L386 0L257 0L257 0L129 0L129 0L0 0Z" fill="#6073e6"></path><path d="M0 10L129 10L129 20L257 20L257 24L386 24L386 4L514 4L514 12L643 12L643 13L771 13L771 26L900 26L900 26L900 0L900 0L771 0L771 0L643 0L643 0L514 0L514 0L386 0L386 0L257 0L257 0L129 0L129 0L0 0Z" fill="#506be6"></path></svg>